<svg id="Layer_1" data-name="Layer 1" xmlns="http://www.w3.org/2000/svg" xmlns:xlink="http://www.w3.org/1999/xlink" viewBox="0 0 240.35 326">
  <defs>
    <style>
      .cls-1 {
        fill: url(#linear-gradient);
      }

      .cls-2 {
        fill: url(#linear-gradient-2);
      }

      .cls-3 {
        fill: url(#linear-gradient-3);
      }

      .cls-4 {
        fill: url(#linear-gradient-4);
      }
    </style>
    <linearGradient id="linear-gradient" x1="931.95" y1="480.35" x2="1042.54" y2="480.35" gradientUnits="userSpaceOnUse">
      <stop offset="0"/>
      <stop offset="0.01" stop-color="#090909"/>
      <stop offset="0.05" stop-color="#373737"/>
      <stop offset="0.09" stop-color="#626262"/>
      <stop offset="0.14" stop-color="#888"/>
      <stop offset="0.2" stop-color="#a8a8a8"/>
      <stop offset="0.25" stop-color="#c4c4c4"/>
      <stop offset="0.32" stop-color="#dadada"/>
      <stop offset="0.4" stop-color="#ebebeb"/>
      <stop offset="0.49" stop-color="#f6f6f6"/>
      <stop offset="0.63" stop-color="#fdfdfd"/>
      <stop offset="1" stop-color="#fff"/>
    </linearGradient>
    <linearGradient id="linear-gradient-2" x1="875.51" y1="339.63" x2="1098.8" y2="339.63" xlink:href="#linear-gradient"/>
    <linearGradient id="linear-gradient-3" x1="858.45" y1="379.98" x2="1077.56" y2="379.98" gradientUnits="userSpaceOnUse">
      <stop offset="0" stop-color="#fff"/>
      <stop offset="0.33" stop-color="#fdfdfd"/>
      <stop offset="0.46" stop-color="#f6f6f6"/>
      <stop offset="0.56" stop-color="#e9e9e9"/>
      <stop offset="0.65" stop-color="#d8d8d8"/>
      <stop offset="0.72" stop-color="#c1c1c1"/>
      <stop offset="0.79" stop-color="#a4a4a4"/>
      <stop offset="0.85" stop-color="#838383"/>
      <stop offset="0.9" stop-color="#5b5b5b"/>
      <stop offset="0.95" stop-color="#313131"/>
      <stop offset="1"/>
    </linearGradient>
    <linearGradient id="linear-gradient-4" x1="894.04" y1="419.13" x2="1089" y2="419.13" xlink:href="#linear-gradient-3"/>
  </defs>
  <g>
    <path class="cls-1" d="M1042.54,559.1V570H932V559.1l7.56-.18q20.93-1,25-6.06t4.14-28.4V390.71l1.52.45q21.62,6.48,35.4,11.56V524.46q0,23.38,4.22,28.4t25.14,6.06Z" transform="translate(-858.45 -244)"/>
    <path class="cls-2" d="M1098.8,309.8v47.64h-18.46l-.18-3.51q-.53-6.51-.53-15.48,0-12-7-13a182.36,182.36,0,0,0-25.44-1.58h-41.54v45.61q-8-2.67-17-5.47-10.93-3.37-20-6.38V323.86H927.2c-4.77,0-9.26.13-13.43.39q-6.51.39-12.06,1.19-7.2,1.06-7.21,13,0,9-.35,15.48L894,356.2l-.06,1.24H875.51V309.8Z" transform="translate(-858.45 -244)"/>
  </g>
  <g>
    <path class="cls-3" d="M940.07,499.05a280.7,280.7,0,0,1-39-12.61q-9.89-4.12-15.47-9.4a43.73,43.73,0,0,1-9.09-12.2q-3.51-6.91-9.75-22.42a84.54,84.54,0,0,0-8.32,1.65q14.82,40.31,14.3,69l10.65.41q-1.56-7.23,5.2-7.23a74.72,74.72,0,0,1,8.58,1.24A366.94,366.94,0,0,0,968.7,516V503.82A182.15,182.15,0,0,1,940.07,499.05Zm133.85-224.67c.18-2.06.48-5,.91-8.68s.87-7.13,1.3-10.23.91-6.23,1.43-9.4a21.11,21.11,0,0,0-5.19-.83l-2.08.83a33,33,0,0,1-15.6,4.13,126.25,126.25,0,0,1-13.26-1.65,317.72,317.72,0,0,0-53.8-4.55q-53.53,0-82.39,20.77-25.59,18.42-28.47,45h32.45a48.46,48.46,0,0,1-.34-5.86q0-15.92,13.9-33.79t57.05-17.88a167.21,167.21,0,0,1,36.91,4.34A85.49,85.49,0,0,1,1051.31,273q15.35,12.09,17.42,33.17l7.79-.41q.27-2.28-3.12-27.28A30,30,0,0,0,1073.92,274.38Z" transform="translate(-858.45 -244)"/>
    <path class="cls-4" d="M1089,445.67a55.09,55.09,0,0,1-13,35.78q-13,15.93-39,25.24a151.78,151.78,0,0,1-31.4,7.32V503.19A126.6,126.6,0,0,0,1032,496q22.21-8.68,22.22-38.24,0-14.88-6.5-25.62a52,52,0,0,0-17-17.37,133.2,133.2,0,0,0-24.43-11.78l-.6-.22q-13.79-5.09-35.4-11.56l-1.52-.45q-29.66-8.65-49-17.74A99,99,0,0,1,894,356.2l.11-2.27q.36-6.51.35-15.48,0-12,7.21-13,5.55-.79,12.06-1.19a37.27,37.27,0,0,0,5.5,7.49,72.24,72.24,0,0,0,25.86,17.34q9.43,3.82,23.57,8.54,9,3,20,6.38,9,2.81,17,5.47,20.21,6.79,34,12.79a105,105,0,0,1,34.3,24.21Q1089,422.29,1089,445.67Z" transform="translate(-858.45 -244)"/>
  </g>
</svg>
